<mxfile host="65bd71144e">
    <diagram id="snXYFUUtnWpXlYPX3RTv" name="Page-1">
        <mxGraphModel dx="2629" dy="227" grid="0" gridSize="10" guides="1" tooltips="1" connect="1" arrows="1" fold="1" page="1" pageScale="1" pageWidth="2336" pageHeight="1654" background="#333333" math="0" shadow="0">
            <root>
                <mxCell id="0"/>
                <mxCell id="1" parent="0"/>
                <mxCell id="57" value="ثبت اطلاعات فرستنده" style="swimlane;fontColor=#000000;" parent="1" vertex="1">
                    <mxGeometry x="50" y="1010" width="410" height="290" as="geometry">
                        <mxRectangle x="130" y="1140" width="90" height="23" as="alternateBounds"/>
                    </mxGeometry>
                </mxCell>
                <mxCell id="58" value="&lt;span style=&quot;font-size: 25px&quot;&gt;&lt;font color=&quot;#000000&quot;&gt;استان&lt;br&gt;شهر&lt;br&gt;&lt;/font&gt;&lt;/span&gt;&lt;span style=&quot;color: rgb(0 , 0 , 0) ; font-size: 25px&quot;&gt;آدرس جغرافیایی فرستنده از روی نقشه&lt;/span&gt;&lt;span style=&quot;font-size: 25px&quot;&gt;&lt;font color=&quot;#000000&quot;&gt;&amp;nbsp;&lt;br&gt;کد پستی&lt;br&gt;&amp;nbsp;شماره تماس&lt;br&gt;آدرس متنی&lt;br&gt;نام و نام خانوادگی&lt;br&gt;نام شرکت&amp;nbsp;&lt;br&gt;&lt;/font&gt;&lt;/span&gt;&lt;span style=&quot;font-size: 25px&quot;&gt;&lt;font color=&quot;#000000&quot;&gt;پست الکترونیک&lt;/font&gt;&lt;/span&gt;" style="text;html=1;align=right;verticalAlign=middle;resizable=0;points=[];autosize=1;strokeColor=none;fontColor=#FFFFFF;fontFamily=Tahoma;" parent="57" vertex="1">
                    <mxGeometry x="-100" y="70" width="430" height="180" as="geometry"/>
                </mxCell>
                <mxCell id="219" value="" style="shape=ext;double=1;whiteSpace=wrap;html=1;aspect=fixed;fillColor=#a20025;strokeColor=#6F0000;fontColor=#ffffff;" parent="57" vertex="1">
                    <mxGeometry x="350" y="30" width="20" height="20" as="geometry"/>
                </mxCell>
                <mxCell id="220" value="" style="shape=ext;double=1;whiteSpace=wrap;html=1;aspect=fixed;fillColor=#a20025;strokeColor=#6F0000;fontColor=#ffffff;" parent="57" vertex="1">
                    <mxGeometry x="350" y="60" width="20" height="20" as="geometry"/>
                </mxCell>
                <mxCell id="222" value="" style="shape=ext;double=1;whiteSpace=wrap;html=1;aspect=fixed;fillColor=#a20025;strokeColor=#6F0000;fontColor=#ffffff;" parent="57" vertex="1">
                    <mxGeometry x="350" y="120" width="20" height="20" as="geometry"/>
                </mxCell>
                <mxCell id="223" value="" style="shape=ext;double=1;whiteSpace=wrap;html=1;aspect=fixed;fillColor=#a20025;strokeColor=#6F0000;fontColor=#ffffff;" parent="57" vertex="1">
                    <mxGeometry x="350" y="150" width="20" height="20" as="geometry"/>
                </mxCell>
                <mxCell id="224" value="" style="shape=ext;double=1;whiteSpace=wrap;html=1;aspect=fixed;fillColor=#a20025;strokeColor=#6F0000;fontColor=#ffffff;" parent="57" vertex="1">
                    <mxGeometry x="350" y="180" width="20" height="20" as="geometry"/>
                </mxCell>
                <mxCell id="225" value="" style="shape=ext;double=1;whiteSpace=wrap;html=1;aspect=fixed;fillColor=#a20025;strokeColor=#6F0000;fontColor=#ffffff;" parent="57" vertex="1">
                    <mxGeometry x="350" y="210" width="20" height="20" as="geometry"/>
                </mxCell>
                <mxCell id="226" value="" style="shape=ext;double=1;whiteSpace=wrap;html=1;aspect=fixed;" parent="57" vertex="1">
                    <mxGeometry x="350" y="240" width="20" height="20" as="geometry"/>
                </mxCell>
                <mxCell id="227" value="" style="shape=ext;double=1;whiteSpace=wrap;html=1;aspect=fixed;" parent="57" vertex="1">
                    <mxGeometry x="350" y="270" width="20" height="20" as="geometry"/>
                </mxCell>
                <mxCell id="61" value="ثبت اطلاعات مرسوله" style="swimlane;fontColor=#000000;" parent="1" vertex="1">
                    <mxGeometry x="600" y="1020" width="400" height="310" as="geometry"/>
                </mxCell>
                <mxCell id="62" value="&lt;font style=&quot;font-size: 29px&quot;&gt;&lt;font color=&quot;#000000&quot; style=&quot;font-size: 29px&quot;&gt;محتوایات مرسوله&amp;nbsp;&lt;br&gt;&lt;/font&gt;&lt;font color=&quot;#000000&quot; style=&quot;font-size: 29px&quot;&gt;ابعاد مرسوله&lt;br&gt;&lt;/font&gt;&lt;span style=&quot;color: rgb(0 , 0 , 0)&quot;&gt;نیاز به کارتون&lt;/span&gt;&lt;font color=&quot;#000000&quot; style=&quot;font-size: 29px&quot;&gt;&lt;br&gt;ارزش ریالی کالا&lt;/font&gt;&lt;font color=&quot;#000000&quot; style=&quot;font-size: 29px&quot;&gt;&lt;br&gt;وزن مرسوله&lt;br&gt;انتخاب بیمه&lt;/font&gt;&lt;br&gt;&lt;/font&gt;" style="text;html=1;align=right;verticalAlign=middle;resizable=0;points=[];autosize=1;strokeColor=none;fontColor=#FFFFFF;" parent="61" vertex="1">
                    <mxGeometry x="140" y="70" width="190" height="120" as="geometry"/>
                </mxCell>
                <mxCell id="237" value="" style="shape=ext;double=1;whiteSpace=wrap;html=1;aspect=fixed;fillColor=#a20025;strokeColor=#6F0000;fontColor=#ffffff;" parent="61" vertex="1">
                    <mxGeometry x="350" y="32.5" width="20" height="20" as="geometry"/>
                </mxCell>
                <mxCell id="238" value="" style="shape=ext;double=1;whiteSpace=wrap;html=1;aspect=fixed;fillColor=#a20025;strokeColor=#6F0000;fontColor=#ffffff;" parent="61" vertex="1">
                    <mxGeometry x="350" y="60" width="20" height="20" as="geometry"/>
                </mxCell>
                <mxCell id="239" value="" style="shape=ext;double=1;whiteSpace=wrap;html=1;aspect=fixed;fillColor=#a20025;strokeColor=#6F0000;fontColor=#ffffff;" parent="61" vertex="1">
                    <mxGeometry x="350" y="210" width="20" height="20" as="geometry"/>
                </mxCell>
                <mxCell id="241" value="" style="shape=ext;double=1;whiteSpace=wrap;html=1;aspect=fixed;fillColor=#a20025;strokeColor=#6F0000;fontColor=#ffffff;" parent="61" vertex="1">
                    <mxGeometry x="350" y="180" width="20" height="20" as="geometry"/>
                </mxCell>
                <mxCell id="240" value="" style="shape=ext;double=1;whiteSpace=wrap;html=1;aspect=fixed;fillColor=#a20025;strokeColor=#6F0000;fontColor=#ffffff;" parent="61" vertex="1">
                    <mxGeometry x="350" y="140" width="20" height="20" as="geometry"/>
                </mxCell>
                <mxCell id="242" value="" style="shape=ext;double=1;whiteSpace=wrap;html=1;aspect=fixed;" parent="61" vertex="1">
                    <mxGeometry x="350" y="100" width="20" height="20" as="geometry"/>
                </mxCell>
                <mxCell id="63" value="ثبت اطلاعات گیرنده " style="swimlane;fontColor=#000000;" parent="1" vertex="1">
                    <mxGeometry x="1110" y="1030" width="360" height="310" as="geometry"/>
                </mxCell>
                <mxCell id="64" value="&lt;span style=&quot;font-size: 25px&quot;&gt;&lt;font color=&quot;#000000&quot;&gt;استان&lt;br&gt;شهر&lt;br&gt;&lt;/font&gt;&lt;/span&gt;&lt;span style=&quot;color: rgb(0 , 0 , 0) ; font-size: 25px&quot;&gt;آدرس جغرافیایی فرستنده از روی نقشه&lt;/span&gt;&lt;span style=&quot;font-size: 25px&quot;&gt;&lt;font color=&quot;#000000&quot;&gt;&amp;nbsp;&lt;br&gt;کد پستی&lt;br&gt;&amp;nbsp;شماره تماس&lt;br&gt;آدرس متنی&lt;br&gt;نام و نام خانوادگی&lt;br&gt;&lt;/font&gt;&lt;/span&gt;&lt;span style=&quot;font-size: 25px&quot;&gt;&lt;font color=&quot;#000000&quot;&gt;نام شرکت&amp;nbsp;&lt;br&gt;پست الکترونیک&lt;/font&gt;&lt;/span&gt;" style="text;html=1;align=right;verticalAlign=middle;resizable=0;points=[];autosize=1;strokeColor=none;fontColor=#FFFFFF;" parent="63" vertex="1">
                    <mxGeometry y="80" width="330" height="160" as="geometry"/>
                </mxCell>
                <mxCell id="228" value="" style="shape=ext;double=1;whiteSpace=wrap;html=1;aspect=fixed;fillColor=#a20025;strokeColor=#6F0000;fontColor=#ffffff;" parent="63" vertex="1">
                    <mxGeometry x="333" y="30" width="20" height="20" as="geometry"/>
                </mxCell>
                <mxCell id="229" value="" style="shape=ext;double=1;whiteSpace=wrap;html=1;aspect=fixed;fillColor=#a20025;strokeColor=#6F0000;fontColor=#ffffff;" parent="63" vertex="1">
                    <mxGeometry x="333" y="60" width="20" height="20" as="geometry"/>
                </mxCell>
                <mxCell id="230" value="" style="shape=ext;double=1;whiteSpace=wrap;html=1;aspect=fixed;fillColor=#a20025;strokeColor=#6F0000;fontColor=#ffffff;" parent="63" vertex="1">
                    <mxGeometry x="333" y="120" width="20" height="20" as="geometry"/>
                </mxCell>
                <mxCell id="231" value="" style="shape=ext;double=1;whiteSpace=wrap;html=1;aspect=fixed;fillColor=#a20025;strokeColor=#6F0000;fontColor=#ffffff;" parent="63" vertex="1">
                    <mxGeometry x="333" y="150" width="20" height="20" as="geometry"/>
                </mxCell>
                <mxCell id="232" value="" style="shape=ext;double=1;whiteSpace=wrap;html=1;aspect=fixed;fillColor=#a20025;strokeColor=#6F0000;fontColor=#ffffff;" parent="63" vertex="1">
                    <mxGeometry x="333" y="180" width="20" height="20" as="geometry"/>
                </mxCell>
                <mxCell id="233" value="" style="shape=ext;double=1;whiteSpace=wrap;html=1;aspect=fixed;fillColor=#a20025;strokeColor=#6F0000;fontColor=#ffffff;" parent="63" vertex="1">
                    <mxGeometry x="333" y="210" width="20" height="20" as="geometry"/>
                </mxCell>
                <mxCell id="234" value="" style="shape=ext;double=1;whiteSpace=wrap;html=1;aspect=fixed;" parent="63" vertex="1">
                    <mxGeometry x="333" y="240" width="20" height="20" as="geometry"/>
                </mxCell>
                <mxCell id="235" value="" style="shape=ext;double=1;whiteSpace=wrap;html=1;aspect=fixed;" parent="63" vertex="1">
                    <mxGeometry x="333" y="270" width="20" height="20" as="geometry"/>
                </mxCell>
                <mxCell id="236" value="" style="shape=ext;double=1;whiteSpace=wrap;html=1;aspect=fixed;fillColor=#a20025;strokeColor=#6F0000;fontColor=#ffffff;" parent="63" vertex="1">
                    <mxGeometry x="333" y="90" width="20" height="20" as="geometry"/>
                </mxCell>
                <mxCell id="65" value="قرارداد مشتری" style="swimlane;fontColor=#000000;" parent="1" vertex="1">
                    <mxGeometry x="1890" y="1072.5" width="340" height="357.5" as="geometry">
                        <mxRectangle x="130" y="1140" width="90" height="23" as="alternateBounds"/>
                    </mxGeometry>
                </mxCell>
                <mxCell id="66" value="&lt;span style=&quot;color: rgb(0 , 0 , 0) ; font-size: 25px&quot;&gt;نماینده&lt;/span&gt;&lt;br style=&quot;color: rgb(0 , 0 , 0) ; font-size: 25px&quot;&gt;&lt;span style=&quot;color: rgb(0 , 0 , 0) ; font-size: 25px&quot;&gt;مشتری&lt;/span&gt;&lt;br style=&quot;color: rgb(0 , 0 , 0) ; font-size: 25px&quot;&gt;&lt;span style=&quot;color: rgb(0 , 0 , 0) ; font-size: 25px&quot;&gt;جمع اور&lt;/span&gt;&lt;br style=&quot;color: rgb(0 , 0 , 0) ; font-size: 25px&quot;&gt;&lt;span style=&quot;color: rgb(0 , 0 , 0) ; font-size: 25px&quot;&gt;پرینت&lt;/span&gt;&lt;br style=&quot;color: rgb(0 , 0 , 0) ; font-size: 25px&quot;&gt;&lt;span style=&quot;color: rgb(0 , 0 , 0) ; font-size: 25px&quot;&gt;تخفیف ها&amp;nbsp;&lt;/span&gt;&lt;br style=&quot;color: rgb(0 , 0 , 0) ; font-size: 25px&quot;&gt;&lt;span style=&quot;color: rgb(0 , 0 , 0) ; font-size: 25px&quot;&gt;بازاریاب&lt;/span&gt;&lt;br style=&quot;color: rgb(0 , 0 , 0) ; font-size: 25px&quot;&gt;&lt;span style=&quot;color: rgb(0 , 0 , 0) ; font-size: 25px&quot;&gt;لیزینگ&lt;/span&gt;&lt;br style=&quot;color: rgb(0 , 0 , 0) ; font-size: 25px&quot;&gt;&lt;span style=&quot;color: rgb(0 , 0 , 0) ; font-size: 25px&quot;&gt;لفاف و بسته بندی&lt;/span&gt;" style="text;html=1;align=right;verticalAlign=middle;resizable=0;points=[];autosize=1;strokeColor=none;fontColor=#FFFFFF;" parent="65" vertex="1">
                    <mxGeometry x="160" y="117.5" width="160" height="150" as="geometry"/>
                </mxCell>
                <mxCell id="132" value="order" style="swimlane;childLayout=stackLayout;resizeParent=1;resizeParentMax=0;horizontal=0;startSize=20;horizontalStack=0;fillColor=#60a917;strokeColor=#2D7600;fontColor=#ffffff;fontSize=13;" parent="1" vertex="1">
                    <mxGeometry x="83" y="80" width="2170" height="900" as="geometry"/>
                </mxCell>
                <mxCell id="133" value="Customer" style="swimlane;startSize=20;horizontal=0;fillColor=#fa6800;fontColor=#000000;strokeColor=#C73500;" parent="132" vertex="1">
                    <mxGeometry x="20" width="2150" height="360" as="geometry"/>
                </mxCell>
                <mxCell id="138" value="" style="edgeStyle=orthogonalEdgeStyle;rounded=0;orthogonalLoop=1;jettySize=auto;html=1;fontSize=13;" parent="133" source="136" target="137" edge="1">
                    <mxGeometry relative="1" as="geometry"/>
                </mxCell>
                <mxCell id="136" value="&lt;font style=&quot;font-size: 18px&quot;&gt;شروع&lt;/font&gt;" style="ellipse;whiteSpace=wrap;html=1;aspect=fixed;fontSize=13;fillColor=#0050ef;strokeColor=#001DBC;fontColor=#ffffff;" parent="133" vertex="1">
                    <mxGeometry x="57" y="100" width="80" height="80" as="geometry"/>
                </mxCell>
                <mxCell id="140" value="" style="edgeStyle=orthogonalEdgeStyle;rounded=0;orthogonalLoop=1;jettySize=auto;html=1;fontSize=13;" parent="133" source="137" target="139" edge="1">
                    <mxGeometry relative="1" as="geometry"/>
                </mxCell>
                <mxCell id="137" value="&lt;font style=&quot;font-size: 17px&quot;&gt;ثبت سفارش داخلی&lt;/font&gt;" style="whiteSpace=wrap;html=1;fontSize=13;fontColor=#ffffff;strokeColor=#2D7600;fillColor=#60a917;" parent="133" vertex="1">
                    <mxGeometry x="197" y="110" width="120" height="60" as="geometry"/>
                </mxCell>
                <mxCell id="139" value="&lt;font style=&quot;font-size: 16px&quot;&gt;ثبت سفارش انبوه&lt;/font&gt;" style="whiteSpace=wrap;html=1;fontSize=13;fontColor=#ffffff;strokeColor=#2D7600;fillColor=#60a917;" parent="133" vertex="1">
                    <mxGeometry x="357" y="110" width="120" height="60" as="geometry"/>
                </mxCell>
                <mxCell id="177" value="" style="edgeStyle=orthogonalEdgeStyle;rounded=0;orthogonalLoop=1;jettySize=auto;html=1;" parent="133" source="148" target="176" edge="1">
                    <mxGeometry relative="1" as="geometry"/>
                </mxCell>
                <mxCell id="148" value="ثبت اطلاعات فرستنده&amp;nbsp;" style="whiteSpace=wrap;html=1;rounded=1;fontSize=13;fontColor=#ffffff;strokeColor=#2D7600;fillColor=#60a917;" parent="133" vertex="1">
                    <mxGeometry x="1117" y="110" width="120" height="60" as="geometry"/>
                </mxCell>
                <mxCell id="166" value="" style="edgeStyle=orthogonalEdgeStyle;rounded=0;orthogonalLoop=1;jettySize=auto;html=1;" parent="133" source="163" target="165" edge="1">
                    <mxGeometry relative="1" as="geometry"/>
                </mxCell>
                <mxCell id="163" value="&lt;font style=&quot;font-size: 20px&quot;&gt;پرینت&amp;nbsp;&lt;/font&gt;" style="whiteSpace=wrap;html=1;fontSize=13;fontColor=#ffffff;strokeColor=#2D7600;fillColor=#60a917;" parent="133" vertex="1">
                    <mxGeometry x="637" y="110" width="120" height="60" as="geometry"/>
                </mxCell>
                <mxCell id="168" value="" style="edgeStyle=orthogonalEdgeStyle;rounded=0;orthogonalLoop=1;jettySize=auto;html=1;" parent="133" source="165" target="167" edge="1">
                    <mxGeometry relative="1" as="geometry"/>
                </mxCell>
                <mxCell id="165" value="&lt;font style=&quot;font-size: 18px&quot;&gt;چاپ لوگو&amp;nbsp;&lt;/font&gt;" style="whiteSpace=wrap;html=1;fontSize=13;fontColor=#ffffff;strokeColor=#2D7600;fillColor=#60a917;" parent="133" vertex="1">
                    <mxGeometry x="787" y="110" width="120" height="60" as="geometry"/>
                </mxCell>
                <mxCell id="171" style="edgeStyle=orthogonalEdgeStyle;rounded=0;orthogonalLoop=1;jettySize=auto;html=1;exitX=1;exitY=0.5;exitDx=0;exitDy=0;entryX=0;entryY=0.5;entryDx=0;entryDy=0;" parent="133" source="167" target="148" edge="1">
                    <mxGeometry relative="1" as="geometry"/>
                </mxCell>
                <mxCell id="167" value="&lt;font face=&quot;helvetica&quot;&gt;&lt;span style=&quot;font-size: 20px&quot;&gt;پیامک&lt;/span&gt;&lt;/font&gt;" style="whiteSpace=wrap;html=1;fontSize=13;fontColor=#ffffff;strokeColor=#2D7600;fillColor=#60a917;" parent="133" vertex="1">
                    <mxGeometry x="945" y="110" width="120" height="60" as="geometry"/>
                </mxCell>
                <mxCell id="175" style="edgeStyle=orthogonalEdgeStyle;rounded=0;orthogonalLoop=1;jettySize=auto;html=1;exitX=1;exitY=0.5;exitDx=0;exitDy=0;entryX=0;entryY=0.5;entryDx=0;entryDy=0;" parent="133" source="172" target="163" edge="1">
                    <mxGeometry relative="1" as="geometry"/>
                </mxCell>
                <mxCell id="172" value="انتخاب نوع سرویس" style="whiteSpace=wrap;html=1;fontSize=13;fontColor=#ffffff;strokeColor=#2D7600;fillColor=#60a917;" parent="133" vertex="1">
                    <mxGeometry x="497" y="110" width="120" height="60" as="geometry"/>
                </mxCell>
                <mxCell id="179" value="" style="edgeStyle=orthogonalEdgeStyle;rounded=0;orthogonalLoop=1;jettySize=auto;html=1;" parent="133" source="176" target="178" edge="1">
                    <mxGeometry relative="1" as="geometry">
                        <Array as="points">
                            <mxPoint x="1387" y="140"/>
                            <mxPoint x="1387" y="68"/>
                        </Array>
                    </mxGeometry>
                </mxCell>
                <mxCell id="181" value="" style="edgeStyle=orthogonalEdgeStyle;rounded=0;orthogonalLoop=1;jettySize=auto;html=1;" parent="133" source="176" target="180" edge="1">
                    <mxGeometry relative="1" as="geometry">
                        <Array as="points">
                            <mxPoint x="1387" y="140"/>
                            <mxPoint x="1387" y="215"/>
                        </Array>
                    </mxGeometry>
                </mxCell>
                <mxCell id="176" value="نوع وارد کردن مرسوله" style="rhombus;whiteSpace=wrap;html=1;rounded=1;fontSize=13;fontColor=#ffffff;strokeColor=#6F0000;fillColor=#a20025;" parent="133" vertex="1">
                    <mxGeometry x="1257" y="85" width="103" height="110" as="geometry"/>
                </mxCell>
                <mxCell id="183" value="" style="edgeStyle=orthogonalEdgeStyle;rounded=0;orthogonalLoop=1;jettySize=auto;html=1;" parent="133" source="178" target="182" edge="1">
                    <mxGeometry relative="1" as="geometry"/>
                </mxCell>
                <mxCell id="178" value="&lt;font style=&quot;font-size: 20px&quot;&gt;دستی&lt;/font&gt;" style="whiteSpace=wrap;html=1;rounded=1;fontSize=13;fontColor=#ffffff;strokeColor=#2D7600;fillColor=#60a917;" parent="133" vertex="1">
                    <mxGeometry x="1417" y="48.75" width="93" height="35" as="geometry"/>
                </mxCell>
                <mxCell id="204" style="edgeStyle=orthogonalEdgeStyle;rounded=0;orthogonalLoop=1;jettySize=auto;html=1;exitX=1;exitY=0.5;exitDx=0;exitDy=0;entryX=0;entryY=0.5;entryDx=0;entryDy=0;" parent="133" source="180" target="186" edge="1">
                    <mxGeometry relative="1" as="geometry"/>
                </mxCell>
                <mxCell id="180" value="بارگذاری فایل اکسل" style="whiteSpace=wrap;html=1;rounded=1;fontSize=13;fontColor=#ffffff;strokeColor=#2D7600;fillColor=#60a917;" parent="133" vertex="1">
                    <mxGeometry x="1407" y="180" width="103" height="50" as="geometry"/>
                </mxCell>
                <mxCell id="187" value="" style="edgeStyle=orthogonalEdgeStyle;rounded=0;orthogonalLoop=1;jettySize=auto;html=1;" parent="133" source="182" target="186" edge="1">
                    <mxGeometry relative="1" as="geometry"/>
                </mxCell>
                <mxCell id="182" value="وارد کردن اطلاعات مرسوله" style="whiteSpace=wrap;html=1;rounded=1;fontSize=13;fontColor=#ffffff;strokeColor=#2D7600;fillColor=#60a917;" parent="133" vertex="1">
                    <mxGeometry x="1537" y="47.5" width="133.5" height="37.5" as="geometry"/>
                </mxCell>
                <mxCell id="189" value="" style="edgeStyle=orthogonalEdgeStyle;rounded=0;orthogonalLoop=1;jettySize=auto;html=1;" parent="133" source="186" target="188" edge="1">
                    <mxGeometry relative="1" as="geometry"/>
                </mxCell>
                <mxCell id="206" style="edgeStyle=orthogonalEdgeStyle;rounded=0;orthogonalLoop=1;jettySize=auto;html=1;exitX=1;exitY=0.5;exitDx=0;exitDy=0;entryX=0;entryY=0.5;entryDx=0;entryDy=0;" parent="133" source="186" target="205" edge="1">
                    <mxGeometry relative="1" as="geometry"/>
                </mxCell>
                <mxCell id="209" style="edgeStyle=orthogonalEdgeStyle;rounded=0;orthogonalLoop=1;jettySize=auto;html=1;exitX=1;exitY=0.5;exitDx=0;exitDy=0;entryX=0;entryY=0.5;entryDx=0;entryDy=0;" parent="133" source="186" target="208" edge="1">
                    <mxGeometry relative="1" as="geometry"/>
                </mxCell>
                <mxCell id="186" value="ثبت سفارش انبوه" style="whiteSpace=wrap;html=1;rounded=1;fontSize=13;fontColor=#ffffff;strokeColor=#2D7600;fillColor=#60a917;" parent="133" vertex="1">
                    <mxGeometry x="1677" y="147.5" width="120" height="47.5" as="geometry"/>
                </mxCell>
                <mxCell id="249" style="edgeStyle=orthogonalEdgeStyle;rounded=0;orthogonalLoop=1;jettySize=auto;html=1;exitX=1;exitY=0.75;exitDx=0;exitDy=0;" parent="133" source="188" target="212" edge="1">
                    <mxGeometry relative="1" as="geometry"/>
                </mxCell>
                <mxCell id="188" value="پس کرایه" style="whiteSpace=wrap;html=1;rounded=1;fontSize=13;fontColor=#ffffff;strokeColor=#2D7600;fillColor=#60a917;" parent="133" vertex="1">
                    <mxGeometry x="1837" y="128.75" width="63" height="40" as="geometry"/>
                </mxCell>
                <mxCell id="250" style="edgeStyle=orthogonalEdgeStyle;rounded=0;orthogonalLoop=1;jettySize=auto;html=1;exitX=1;exitY=0.75;exitDx=0;exitDy=0;" parent="133" source="205" target="212" edge="1">
                    <mxGeometry relative="1" as="geometry"/>
                </mxCell>
                <mxCell id="205" value="پیش کرایه" style="whiteSpace=wrap;html=1;rounded=1;fontSize=13;fontColor=#ffffff;strokeColor=#2D7600;fillColor=#60a917;" parent="133" vertex="1">
                    <mxGeometry x="1837" y="190" width="63" height="40" as="geometry"/>
                </mxCell>
                <mxCell id="251" style="edgeStyle=orthogonalEdgeStyle;rounded=0;orthogonalLoop=1;jettySize=auto;html=1;exitX=1;exitY=0.25;exitDx=0;exitDy=0;" parent="133" source="208" target="212" edge="1">
                    <mxGeometry relative="1" as="geometry"/>
                </mxCell>
                <mxCell id="208" value="سفارش جارجی" style="whiteSpace=wrap;html=1;rounded=1;fontSize=13;fontColor=#ffffff;strokeColor=#2D7600;fillColor=#60a917;" parent="133" vertex="1">
                    <mxGeometry x="1837" y="250" width="83" height="40" as="geometry"/>
                </mxCell>
                <mxCell id="212" value="&lt;font style=&quot;font-size: 23px&quot;&gt;پایان&lt;/font&gt;" style="ellipse;whiteSpace=wrap;html=1;fillColor=#0050ef;strokeColor=#001DBC;fontColor=#ffffff;" parent="133" vertex="1">
                    <mxGeometry x="2077" y="134.38" width="73" height="70" as="geometry"/>
                </mxCell>
                <mxCell id="134" value="Postex" style="swimlane;startSize=20;horizontal=0;fillColor=#0050ef;fontColor=#ffffff;strokeColor=#001DBC;" parent="132" vertex="1">
                    <mxGeometry x="20" y="360" width="2150" height="270" as="geometry"/>
                </mxCell>
                <mxCell id="147" style="edgeStyle=orthogonalEdgeStyle;rounded=0;orthogonalLoop=1;jettySize=auto;html=1;exitX=0.5;exitY=1;exitDx=0;exitDy=0;entryX=0.588;entryY=-0.029;entryDx=0;entryDy=0;entryPerimeter=0;fontSize=13;" parent="132" source="139" target="143" edge="1">
                    <mxGeometry relative="1" as="geometry"/>
                </mxCell>
                <mxCell id="135" value="Vendor" style="swimlane;startSize=20;horizontal=0;fillColor=#e3c800;fontColor=#000000;strokeColor=#B09500;" parent="132" vertex="1">
                    <mxGeometry x="20" y="630" width="2150" height="270" as="geometry"/>
                </mxCell>
                <mxCell id="143" value="اطلاعات نوع سرویس&amp;nbsp;" style="rounded=1;whiteSpace=wrap;html=1;fontSize=13;fillColor=#60a917;strokeColor=#2D7600;fontColor=#ffffff;" parent="135" vertex="1">
                    <mxGeometry x="347" y="105" width="120" height="60" as="geometry"/>
                </mxCell>
                <mxCell id="174" style="edgeStyle=orthogonalEdgeStyle;rounded=0;orthogonalLoop=1;jettySize=auto;html=1;exitX=1;exitY=0.5;exitDx=0;exitDy=0;" parent="132" source="143" target="172" edge="1">
                    <mxGeometry relative="1" as="geometry"/>
                </mxCell>
                <mxCell id="221" value="" style="shape=ext;double=1;whiteSpace=wrap;html=1;aspect=fixed;fillColor=#a20025;strokeColor=#6F0000;fontColor=#ffffff;" parent="1" vertex="1">
                    <mxGeometry x="400" y="1120" width="20" height="20" as="geometry"/>
                </mxCell>
                <mxCell id="243" value="انتخاب خدمات پستی" style="swimlane;startSize=23;fontColor=#000000;" parent="1" vertex="1">
                    <mxGeometry x="1500" y="1100" width="340" height="235" as="geometry"/>
                </mxCell>
                <mxCell id="244" value="&lt;div style=&quot;font-size: 25px&quot;&gt;&lt;font style=&quot;font-size: 25px&quot; color=&quot;#000000&quot;&gt;چاپ فاکتور&lt;/font&gt;&lt;/div&gt;&lt;div style=&quot;font-size: 25px&quot;&gt;&lt;span&gt;&lt;font style=&quot;font-size: 25px&quot; color=&quot;#000000&quot;&gt;کد تخفیف&lt;/font&gt;&lt;/span&gt;&lt;/div&gt;&lt;div style=&quot;font-size: 25px&quot;&gt;&lt;span&gt;&lt;font style=&quot;font-size: 25px&quot; color=&quot;#000000&quot;&gt;فعال کردن اطلاع رسانی پیامکی&lt;/font&gt;&lt;/span&gt;&lt;/div&gt;&lt;div style=&quot;font-size: 25px&quot;&gt;&lt;font style=&quot;font-size: 25px&quot; color=&quot;#000000&quot;&gt;چاپ برند تجاری&amp;nbsp;&lt;/font&gt;&lt;/div&gt;" style="text;html=1;align=right;verticalAlign=middle;resizable=0;points=[];autosize=1;strokeColor=none;fontColor=#FFFFFF;" parent="243" vertex="1">
                    <mxGeometry y="87.5" width="280" height="60" as="geometry"/>
                </mxCell>
                <mxCell id="245" value="" style="shape=ext;double=1;whiteSpace=wrap;html=1;aspect=fixed;fillColor=#a20025;strokeColor=#6F0000;fontColor=#ffffff;" parent="243" vertex="1">
                    <mxGeometry x="293" y="65" width="20" height="20" as="geometry"/>
                </mxCell>
                <mxCell id="246" value="" style="shape=ext;double=1;whiteSpace=wrap;html=1;aspect=fixed;" parent="243" vertex="1">
                    <mxGeometry x="293" y="100" width="20" height="20" as="geometry"/>
                </mxCell>
                <mxCell id="247" value="" style="shape=ext;double=1;whiteSpace=wrap;html=1;aspect=fixed;" parent="243" vertex="1">
                    <mxGeometry x="293" y="150" width="20" height="20" as="geometry"/>
                </mxCell>
                <mxCell id="248" value="" style="shape=ext;double=1;whiteSpace=wrap;html=1;aspect=fixed;" parent="243" vertex="1">
                    <mxGeometry x="293" y="127.5" width="20" height="20" as="geometry"/>
                </mxCell>
            </root>
        </mxGraphModel>
    </diagram>
</mxfile>